<svg width="23" height="22" viewBox="0 0 23 22" fill="none" xmlns="http://www.w3.org/2000/svg">
<g clip-path="url(#clip0_2007_1651)">
<g clip-path="url(#clip1_2007_1651)">
<path d="M11.4356 16.958V20.166M16.9356 11H20.6026M2.26758 11H5.47558M11.4356 5.04102V1.83302M11.4346 20.166C12.6464 20.1787 13.8487 19.9509 14.9719 19.4959C16.0952 19.041 17.117 18.3678 17.9784 17.5153C18.8398 16.6629 19.5236 15.6481 19.9903 14.5297C20.457 13.4113 20.6973 12.2114 20.6973 10.9995C20.6973 9.78764 20.457 8.58778 19.9903 7.46936C19.5236 6.35094 18.8398 5.33615 17.9784 4.48371C17.117 3.63126 16.0952 2.95808 14.9719 2.5031C13.8487 2.04811 12.6464 1.82036 11.4346 1.83302C9.02005 1.85824 6.71299 2.8351 5.01451 4.55141C3.31603 6.26772 2.36332 8.58487 2.36332 10.9995C2.36332 13.4142 3.31603 15.7313 5.01451 17.4476C6.71299 19.1639 9.02005 20.1408 11.4346 20.166Z" stroke="#262626" stroke-width="2" stroke-linecap="round" stroke-linejoin="round"/>
</g>
</g>
<defs>
<clipPath id="clip0_2007_1651">
<rect width="22" height="22" fill="white" transform="translate(0.267578)"/>
</clipPath>
<clipPath id="clip1_2007_1651">
<rect width="22" height="22" fill="white" transform="translate(0.267578)"/>
</clipPath>
</defs>
</svg>
