<svg width="25" height="25" viewBox="0 0 25 25" fill="none" xmlns="http://www.w3.org/2000/svg">
<g clip-path="url(#clip0_2004_35431)">
<g clip-path="url(#clip1_2004_35431)">
<path d="M3.56738 3.8877L8.56738 9.8877M21.5674 3.8877L16.5674 9.8877M16.0674 2.8877L13.5674 8.8877M9.06738 2.8877L11.5674 8.8877" stroke="#262626" stroke-width="1.5" stroke-linecap="round" stroke-linejoin="round"/>
<path d="M12.5674 22.8877C14.4239 22.8877 16.2044 22.1502 17.5171 20.8374C18.8299 19.5247 19.5674 17.7442 19.5674 15.8877C19.5674 14.0312 18.8299 12.2507 17.5171 10.9379C16.2044 9.62519 14.4239 8.8877 12.5674 8.8877C10.7109 8.8877 8.93039 9.62519 7.61764 10.9379C6.30488 12.2507 5.56738 14.0312 5.56738 15.8877C5.56738 17.7442 6.30488 19.5247 7.61764 20.8374C8.93039 22.1502 10.7109 22.8877 12.5674 22.8877Z" stroke="#262626" stroke-width="1.5"/>
<path d="M12.5674 19.3877C13.4956 19.3877 14.3859 19.0189 15.0423 18.3626C15.6986 17.7062 16.0674 16.816 16.0674 15.8877C16.0674 14.9594 15.6986 14.0692 15.0423 13.4128C14.3859 12.7564 13.4956 12.3877 12.5674 12.3877C11.6391 12.3877 10.7489 12.7564 10.0925 13.4128C9.43613 14.0692 9.06738 14.9594 9.06738 15.8877C9.06738 16.816 9.43613 17.7062 10.0925 18.3626C10.7489 19.0189 11.6391 19.3877 12.5674 19.3877Z" stroke="#262626" stroke-width="1.5"/>
</g>
</g>
<defs>
<clipPath id="clip0_2004_35431">
<rect width="24" height="24" fill="white" transform="translate(0.567383 0.887695)"/>
</clipPath>
<clipPath id="clip1_2004_35431">
<rect width="24" height="24" fill="white" transform="translate(0.567383 0.887695)"/>
</clipPath>
</defs>
</svg>
