<svg width="20" height="20" viewBox="0 0 20 20" fill="none" xmlns="http://www.w3.org/2000/svg">
<path d="M9.5 3C13.6422 3 17 6.21308 17 10.1767C17 13.3632 14.8288 16.0631 11.8253 17C11.8263 16.9973 11.8275 16.9934 11.8275 16.9934C11.8275 16.9934 11.3212 16.7665 11.3319 16.3613C11.3437 15.9154 11.3319 14.8748 11.3319 14.4929C11.3319 13.8372 10.8981 13.3725 10.8981 13.3725C10.8981 13.3725 14.2994 13.4089 14.2994 9.93631C14.2994 8.59635 13.5675 7.89931 13.5675 7.89931C13.5675 7.89931 13.9519 6.46875 13.4344 5.86232C12.8544 5.80251 11.8156 6.3928 11.3719 6.6688C11.3719 6.6688 10.6688 6.3931 9.49969 6.3931C8.33031 6.3931 7.6275 6.6688 7.6275 6.6688C7.18406 6.3931 6.145 5.80251 5.565 5.86232C5.0475 6.46905 5.43188 7.89931 5.43188 7.89931C5.43188 7.89931 4.7 8.59665 4.7 9.93631C4.7 13.4089 8.10125 13.3725 8.10125 13.3725C8.10125 13.3725 7.75844 13.743 7.68375 14.2878C7.44625 14.3649 7.09719 14.46 6.815 14.46C6.07688 14.46 5.51531 13.7735 5.30969 13.4559C5.10687 13.1425 4.69094 12.8797 4.30313 12.8797C4.04781 12.8797 3.92312 13.002 3.92312 13.1416C3.92312 13.2813 4.28125 13.3787 4.5175 13.6377C5.01562 14.1837 5.00656 15.4118 6.78156 15.4118C6.97438 15.4118 7.36781 15.3664 7.66375 15.3284C7.66188 15.7151 7.66156 16.1229 7.66781 16.3613C7.67844 16.7665 7.17219 16.9934 7.17219 16.9934C7.17219 16.9934 7.17344 16.9973 7.17438 17C4.17125 16.0631 2 13.3632 2 10.1767C2 6.21308 5.35781 3 9.5 3Z" fill="#F4F4F4"/>
</svg>
