<svg width="24" height="24" viewBox="0 0 24 24" fill="none" xmlns="http://www.w3.org/2000/svg">
<g id="qpDZ05AACAyO52WOnvrc0Bz3i0Y.svg">
<path id="Vector" d="M11.84 9.0508C11.2863 9.0508 10.7449 9.21502 10.2844 9.52268C9.82399 9.83035 9.4651 10.2677 9.25318 10.7793C9.04125 11.2909 8.9858 11.8539 9.09384 12.3971C9.20188 12.9402 9.46855 13.4391 9.86014 13.8307C10.2517 14.2223 10.7506 14.489 11.2938 14.597C11.8369 14.705 12.3999 14.6496 12.9116 14.4377C13.4232 14.2257 13.8605 13.8669 14.1682 13.4064C14.4758 12.9459 14.64 12.4046 14.64 11.8508C14.6414 11.4827 14.5698 11.118 14.4296 10.7777C14.2894 10.4374 14.0832 10.1282 13.8229 9.86795C13.5626 9.60769 13.2534 9.40149 12.9131 9.26124C12.5728 9.121 12.2081 9.04948 11.84 9.0508Z" fill="white"/>
<path id="Vector_2" fill-rule="evenodd" clip-rule="evenodd" d="M15.69 2.00098H8C6.4087 2.00098 4.88258 2.63312 3.75736 3.75834C2.63214 4.88355 2 6.40968 2 8.00098V15.691C2 17.2823 2.63214 18.8084 3.75736 19.9336C4.88258 21.0588 6.4087 21.691 8 21.691H15.69C17.2813 21.691 18.8074 21.0588 19.9326 19.9336C21.0579 18.8084 21.69 17.2823 21.69 15.691V8.00098C21.69 6.40968 21.0579 4.88355 19.9326 3.75834C18.8074 2.63312 17.2813 2.00098 15.69 2.00098ZM11.84 16.141C10.6996 16.1383 9.6069 15.6827 8.80237 14.8745C7.99784 14.0662 7.54735 12.9714 7.55 11.831C7.55265 10.6905 8.00823 9.59788 8.81651 8.79335C9.62479 7.98882 10.7196 7.53832 11.86 7.54098C12.4247 7.54229 12.9836 7.65481 13.5048 7.87212C14.026 8.08943 14.4993 8.40727 14.8976 8.80749C15.296 9.20771 15.6116 9.68248 15.8265 10.2047C16.0414 10.7269 16.1513 11.2863 16.15 11.851C16.1487 12.4157 16.0362 12.9746 15.8189 13.4958C15.6015 14.017 15.2837 14.4902 14.8835 14.8886C14.4833 15.287 14.0085 15.6026 13.4863 15.8175C12.9641 16.0324 12.4047 16.1423 11.84 16.141ZM15.575 6.91298C15.6588 7.1125 15.8 7.28257 15.9808 7.40153C16.1615 7.52049 16.3736 7.58296 16.59 7.58098C16.7318 7.58098 16.8723 7.55304 17.0033 7.49877C17.1343 7.44449 17.2534 7.36494 17.3537 7.26465C17.454 7.16436 17.5335 7.04531 17.5878 6.91427C17.6421 6.78324 17.67 6.6428 17.67 6.50098C17.6715 6.33918 17.6369 6.17908 17.5688 6.03231C17.5007 5.88553 17.4008 5.75576 17.2763 5.65241C17.1518 5.54906 17.0058 5.47473 16.849 5.4348C16.6922 5.39487 16.5285 5.39036 16.3697 5.42158C16.2109 5.4528 16.0611 5.51898 15.9311 5.61531C15.8011 5.71164 15.6942 5.83571 15.6181 5.9785C15.542 6.1213 15.4987 6.27925 15.4912 6.44088C15.4837 6.60252 15.5124 6.76378 15.575 6.91298Z" fill="white"/>
</g>
</svg>
