<svg width="24" height="24" viewBox="0 0 24 24" fill="none" xmlns="http://www.w3.org/2000/svg">
<g id="lE6exgFCC7D83cPTOY1ydeVc5Q.svg">
<path id="Vector" fill-rule="evenodd" clip-rule="evenodd" d="M17.9741 16.9771C17.9761 17.1751 17.9121 17.2321 17.7201 17.2271C17.1728 17.2119 16.6253 17.2129 16.0781 17.2301C15.8031 17.2421 15.7211 17.1701 15.7251 16.8851C15.7411 15.6541 15.7301 14.4221 15.7331 13.1911C15.7331 12.8541 15.7101 12.5191 15.5861 12.2011C15.3761 11.6641 15.0141 11.3011 14.4141 11.2481C13.7741 11.1921 13.3101 11.4831 12.9971 12.0221C12.7911 12.3751 12.7441 12.7701 12.7451 13.1731C12.7481 14.4171 12.7381 15.6611 12.7521 16.9041C12.7561 17.1721 12.6741 17.2391 12.4181 17.2301C11.8709 17.2137 11.3233 17.213 10.7761 17.2281C10.5661 17.2331 10.5021 17.1701 10.5021 16.9581C10.5091 14.3961 10.5081 11.8341 10.5041 9.27207C10.5041 9.08807 10.5411 9.00507 10.7481 9.01007C11.3331 9.02207 11.9181 9.02207 12.5021 9.01007C12.7041 9.00607 12.7571 9.08007 12.7491 9.26907C12.7361 9.57507 12.7461 9.88307 12.7461 10.2691C13.6131 9.19907 14.6561 8.84707 15.8951 9.09707C17.0951 9.33907 17.9211 10.4191 17.9551 11.8661C17.9951 13.5681 17.9641 15.2731 17.9741 16.9771ZM7.89107 8.05707C7.71955 8.05789 7.5496 8.02445 7.39119 7.95871C7.23277 7.89297 7.08908 7.79625 6.96855 7.67423C6.84801 7.5522 6.75307 7.40734 6.68928 7.24812C6.62548 7.08891 6.59414 6.91856 6.59707 6.74707C6.59679 6.40102 6.73346 6.06891 6.97722 5.82328C7.22097 5.57765 7.55202 5.43845 7.89807 5.43607C8.2441 5.44003 8.57447 5.58096 8.81681 5.82799C9.05916 6.07502 9.19374 6.40802 9.19107 6.75407C9.19334 6.92556 9.1613 7.09577 9.09681 7.25469C9.03232 7.41361 8.9367 7.55803 8.81557 7.67944C8.69443 7.80085 8.55024 7.89681 8.39147 7.96166C8.2327 8.02651 8.06256 8.05895 7.89107 8.05707ZM8.69507 17.2301C8.14822 17.2129 7.60098 17.2119 7.05407 17.2271C6.85807 17.2311 6.77007 17.1951 6.77007 16.9671C6.77807 14.4071 6.77707 11.8471 6.77107 9.28707C6.77107 9.08107 6.82007 9.00407 7.03907 9.01007C7.59807 9.02407 8.15807 9.02807 8.71607 9.00807C8.97307 8.99907 9.02007 9.09407 9.01907 9.32707C9.00907 10.5951 9.01407 11.8621 9.01407 13.1301C9.01407 14.3851 9.00707 15.6401 9.02007 16.8961C9.02307 17.1511 8.96407 17.2411 8.69507 17.2301ZM20.9181 6.03807C20.8681 5.63007 20.8601 5.21107 20.6361 4.84707C19.9071 3.66507 18.9021 2.99207 17.4621 3.00007C13.8171 3.01907 10.1721 3.00007 6.52607 3.01307C5.97907 3.01407 5.41607 3.03307 4.91907 3.32607C3.70507 4.04507 2.99207 5.05007 3.00007 6.52107C3.01707 10.1781 3.00007 13.8351 3.01207 17.4931C3.01407 18.0081 3.02207 18.5481 3.29207 19.0121C3.92907 20.1101 4.76907 20.9251 6.14907 20.9201C6.18907 20.9201 6.21907 20.9381 6.25307 20.9561H17.7471C17.8101 20.8991 17.8881 20.9271 17.9601 20.9181C18.3731 20.8661 18.8001 20.8641 19.1671 20.6281C20.1921 19.9641 20.9461 19.1301 20.9231 17.8101C20.9231 17.7871 20.9391 17.7661 20.9571 17.7471V6.25307C20.9051 6.18807 20.9271 6.11007 20.9181 6.03807Z" fill="white"/>
</g>
</svg>
