<svg width="20" height="20" viewBox="0 0 20 20" fill="none" xmlns="http://www.w3.org/2000/svg">
<path d="M18.1683 2.57982C17.873 2.32937 17.4091 2.29353 16.9294 2.4861H16.9286C16.4242 2.68851 2.64907 8.59709 2.0883 8.83849C1.9863 8.87393 1.09553 9.2063 1.18728 9.94664C1.26919 10.6141 1.98512 10.8906 2.07255 10.9225L5.57461 12.1216C5.80695 12.895 6.66347 15.7485 6.85288 16.3581C6.97102 16.7381 7.16359 17.2375 7.50108 17.3402C7.79722 17.4544 8.09178 17.3501 8.28238 17.2004L10.4235 15.2145L13.8799 17.9101L13.9622 17.9593C14.1969 18.0633 14.4217 18.1152 14.6363 18.1152C14.8021 18.1152 14.9612 18.0841 15.1132 18.0219C15.6311 17.8093 15.8382 17.3158 15.8599 17.2599L18.4416 3.84038C18.5992 3.12366 18.3802 2.759 18.1683 2.57982ZM8.66318 12.6012L7.48178 15.7516L6.30038 11.8136L15.3578 5.11905L8.66318 12.6012Z" fill="white"/>
</svg>
