<svg width="951" height="912" viewBox="0 0 951 912" fill="none" xmlns="http://www.w3.org/2000/svg">
<g opacity="0.3" filter="url(#filter0_d_102_3)">
<path d="M475.906 797.02C466.481 799.545 457.327 801.766 448.492 803.665C399.986 814.1 362.637 814.748 337.483 805.592C311.749 796.227 299.514 776.69 301.112 747.518C305.97 658.96 318.622 601.489 326.993 563.463C330.761 546.347 333.738 532.826 334.586 522.6C335.995 505.58 354.418 478.55 382.663 452.055C413.059 423.544 447.976 401.855 478.464 392.55C520.512 379.717 563.35 355.153 591.88 336.804C625.115 315.43 658.606 289.736 681.466 268.07C696.223 254.083 713.818 249.027 732.345 253.448C764.423 261.105 795.145 296.123 812.52 344.832C820.754 367.919 829.27 391.795 836.024 415.226C843.494 441.132 847.935 463.695 849.605 484.202C851.596 508.688 849.796 530.967 844.104 552.307C837.747 576.134 826.714 598.28 810.374 620.012C782.467 657.128 692.904 712.991 592.577 755.86C551.534 773.395 511.753 787.411 475.905 797.017L475.906 797.02ZM706.657 254.67C697.943 257.005 689.708 261.759 682.215 268.862C659.307 290.575 625.757 316.315 592.47 337.721C563.882 356.104 520.95 380.724 478.781 393.593C448.449 402.852 413.684 424.448 383.405 452.853C355.349 479.17 337.057 505.932 335.669 522.695C334.815 532.998 331.831 546.547 328.055 563.703C319.69 601.697 307.053 659.112 302.198 747.583C300.629 776.218 312.624 795.393 337.857 804.578C362.814 813.659 399.96 812.997 448.265 802.609C490.628 793.499 540.382 776.99 592.15 754.869C692.322 712.068 781.703 656.348 809.507 619.368C825.762 597.748 836.735 575.727 843.056 552.034C848.717 530.814 850.508 508.657 848.525 484.296C844.809 438.592 827.873 391.117 811.499 345.204C794.249 296.835 763.823 262.083 732.094 254.512C723.333 252.42 714.785 252.496 706.658 254.673L706.657 254.67Z" fill="white"/>
<path d="M477.011 777.803C469.556 779.801 462.295 781.586 455.251 783.147C410.832 792.992 376.639 793.833 353.616 785.645C330.344 777.367 319.172 759.938 320.41 733.842C323.569 654.993 334.291 600.355 341.384 564.203C344.714 547.231 347.343 533.826 348.145 523.484C349.448 506.767 366.329 480.967 392.203 456.148C419.909 429.572 452.316 409.098 481.117 399.973C519.852 387.945 559.374 365.572 585.705 348.926C616.64 329.367 646.795 306.796 668.437 286.992C682.097 274.498 698.316 270.126 715.346 274.348C744.907 281.676 773.158 313.897 789.074 358.446C804.13 400.461 819.7 443.907 823.127 486.725C824.933 509.279 823.267 529.817 818.035 549.514C812.2 571.484 802.091 591.914 787.142 611.97C761.587 646.485 679.402 698.509 587.287 738.484C548.42 755.35 510.758 768.765 477.008 777.808L477.011 777.803ZM690.964 275.374C683.201 277.454 675.851 281.596 669.129 287.743C647.445 307.585 617.238 330.2 586.254 349.787C559.868 366.466 520.265 388.883 481.426 400.946C452.771 410.025 420.509 430.412 392.914 456.883C367.213 481.535 350.452 507.086 349.167 523.562C348.362 533.965 345.725 547.395 342.392 564.398C335.303 600.522 324.594 655.108 321.438 733.885C320.224 759.484 331.167 776.574 353.966 784.683C376.802 792.804 410.807 791.95 455.036 782.148C493.903 773.536 539.496 758.108 586.889 737.542C678.856 697.632 760.867 645.745 786.329 611.356C801.205 591.406 811.255 571.09 817.056 549.248C822.259 529.664 823.914 509.241 822.116 486.801C818.699 444.115 803.153 400.733 788.117 358.781C772.314 314.551 744.338 282.577 715.103 275.331C706.794 273.272 698.673 273.305 690.963 275.371L690.964 275.374Z" fill="white"/>
<path d="M478.189 758.606C472.668 760.085 467.273 761.429 462.006 762.638C421.674 771.898 390.634 772.928 369.748 765.707C348.938 758.515 338.833 743.191 339.715 720.161C341.199 650.513 349.71 600.651 355.926 564.248C358.747 547.727 360.972 534.677 361.713 524.359C362.928 507.692 377.896 483.72 401.753 460.232C426.779 435.592 456.677 416.333 483.779 407.389C547.981 387.047 621.595 335.555 655.414 305.91C667.978 294.908 682.828 291.218 698.364 295.241C725.403 302.24 751.179 331.671 765.635 372.048C778.713 408.331 793.531 449.458 796.658 489.24C798.276 509.861 796.747 528.659 791.978 546.71C786.662 566.826 777.484 585.537 763.92 603.918C752.274 619.93 728.244 639.831 694.429 661.461C661.949 682.239 622.018 703.421 582.002 721.108C545.335 737.313 509.804 750.134 478.192 758.605L478.189 758.606ZM675.244 296.067C668.44 297.89 661.981 301.423 656.041 306.626C622.164 336.324 548.407 387.91 484.071 408.296C457.107 417.196 427.344 436.373 402.419 460.911C378.725 484.239 363.861 507.985 362.662 524.428C361.918 534.791 359.687 547.861 356.862 564.41C350.654 600.785 342.151 650.606 340.664 720.191C339.801 742.76 349.69 757.767 370.059 764.808C390.774 771.969 421.635 770.927 461.79 761.707C497.159 753.586 538.597 739.246 581.611 720.235C621.586 702.566 661.468 681.409 693.909 660.656C727.622 639.091 751.563 619.278 763.143 603.355C776.639 585.071 785.766 566.462 791.047 546.469C795.788 528.522 797.311 509.828 795.7 489.316C792.585 449.662 777.787 408.598 764.728 372.373C750.377 332.29 724.854 303.088 698.117 296.165C690.24 294.125 682.542 294.112 675.241 296.068L675.244 296.067Z" fill="white"/>
<path d="M479.456 739.432C475.821 740.406 472.254 741.313 468.744 742.153C432.499 750.823 404.616 752.049 385.865 745.796C367.521 739.678 358.488 726.453 359.014 706.489C358.817 645.399 365.633 597.861 370.612 563.153C372.757 548.195 374.61 535.279 375.275 525.24C376.385 508.866 389.852 486.091 411.293 464.322C433.655 441.621 461.043 423.571 486.434 414.808C511.831 406.568 541.887 392.168 573.364 373.161C598.629 357.905 623.785 340.288 642.388 324.829C653.854 315.312 667.342 312.305 681.391 316.139C705.901 322.823 729.196 349.46 742.187 385.659C755.961 423.614 767.573 457.799 770.179 491.764C771.614 510.453 770.216 527.514 765.909 543.92C761.115 562.177 752.865 579.175 740.686 595.881C730.148 610.682 708.456 629.026 677.955 648.929C648.774 667.969 612.813 687.443 576.695 703.764C542.254 719.324 508.887 731.557 479.451 739.445L479.456 739.432ZM659.494 316.742C653.655 318.307 648.1 321.238 642.953 325.509C624.32 340.996 599.122 358.642 573.823 373.918C542.287 392.96 512.168 407.392 486.715 415.647C461.458 424.366 434.195 442.334 411.928 464.942C390.631 486.564 377.258 509.131 376.165 525.298C375.497 535.371 373.641 548.303 371.493 563.277C366.518 597.957 359.706 645.456 359.905 706.498C359.389 726.039 368.217 738.974 386.148 744.952C404.743 751.153 432.463 749.918 468.543 741.289C500.421 733.657 537.695 720.403 576.336 702.942C612.414 686.64 648.333 667.192 677.475 648.174C707.884 628.333 729.492 610.067 739.97 595.349C752.086 578.731 760.288 561.832 765.055 543.685C769.335 527.376 770.725 510.41 769.299 491.823C766.701 457.973 755.109 423.85 741.358 385.952C728.461 350.021 705.396 323.595 681.161 316.987C673.706 314.953 666.406 314.886 659.5 316.737L659.494 316.742Z" fill="white"/>
<path d="M480.839 720.303C479.031 720.787 477.243 721.252 475.468 721.697C443.311 729.782 418.58 731.201 401.962 725.912C386.086 720.86 378.127 709.726 378.312 692.813C376.347 639.48 381.598 593.632 385.433 560.156C386.954 546.883 388.269 535.418 388.834 526.122C389.856 509.786 401.521 488.752 420.833 468.412C440.552 447.644 465.427 430.811 489.087 422.231C536.312 406.471 594.902 370.499 629.358 343.748C639.738 335.707 651.869 333.385 664.437 337.035C686.405 343.415 707.215 367.256 718.741 399.262C730.575 431.6 741.386 463.201 743.702 494.276C744.951 511.029 743.688 526.354 739.844 541.115C735.573 557.515 728.249 572.793 717.459 587.826C708.029 601.416 688.671 618.214 661.483 636.394C635.602 653.699 603.605 671.466 571.388 686.423C539.21 701.358 508.043 713.014 480.84 720.306L480.839 720.303ZM643.7 337.395C638.844 338.696 634.199 341.035 629.864 344.392C595.355 371.183 536.665 407.215 489.36 423C465.828 431.535 441.067 448.293 421.434 468.974C402.25 489.179 390.67 510.025 389.661 526.17C389.093 535.486 387.778 546.962 386.256 560.246C382.422 593.696 377.176 639.509 379.138 692.802C378.958 709.331 386.722 720.199 402.217 725.129C418.687 730.37 443.267 728.947 475.273 720.899C503.656 713.755 536.777 701.583 571.044 685.672C603.222 670.734 635.18 652.991 661.029 635.706C688.134 617.582 707.415 600.862 716.791 587.35C727.528 572.398 734.808 557.207 739.053 540.907C742.876 526.234 744.129 510.999 742.889 494.337C740.582 463.364 729.787 431.823 717.976 399.541C706.537 367.779 685.941 344.131 664.217 337.825C657.158 335.775 650.241 335.65 643.706 337.401L643.7 337.395Z" fill="white"/>
<path d="M482.382 701.224L482.183 701.278C454.114 708.78 432.536 710.392 418.052 706.072C404.641 702.075 397.765 693.011 397.617 679.136C393.639 632.648 397.505 587.227 400.329 554.063C401.213 543.676 401.978 534.708 402.405 526.996C403.324 510.932 413.525 491.066 430.383 472.496C447.484 453.658 469.853 438.036 491.751 429.643C512.1 422.617 535.402 411.765 561.026 397.391C580.3 386.577 600.459 373.918 616.34 362.657C625.64 356.085 636.421 354.451 647.527 357.934C666.947 364.023 685.253 385.07 695.302 412.863C705.292 439.873 715.21 468.604 717.232 496.791C718.293 511.612 717.166 525.192 713.784 538.315C710.034 552.856 703.639 566.42 694.232 579.776C677.734 604.322 626.226 640.229 566.068 669.116C536.209 683.456 507.277 694.554 482.382 701.224ZM627.834 358.015C623.975 359.049 620.265 360.807 616.772 363.275C600.872 374.549 580.684 387.227 561.39 398.05C535.731 412.445 512.384 423.313 492.005 430.35C470.226 438.7 447.964 454.245 430.938 473.002C414.193 491.449 404.068 511.145 403.155 527.038C402.727 534.759 401.963 543.734 401.077 554.125C398.253 587.262 394.391 632.644 398.368 679.096C398.515 692.63 405.209 701.451 418.266 705.344C432.614 709.622 454.054 708.009 481.986 700.543L482.186 700.49C507.035 693.832 535.919 682.75 565.738 668.429C625.786 639.593 677.169 603.792 693.606 579.34C702.963 566.054 709.321 552.572 713.048 538.119C716.409 525.08 717.53 511.577 716.476 496.839C714.462 468.752 704.56 440.081 694.59 413.117C684.617 385.54 666.497 364.668 647.3 358.651C640.606 356.552 634.028 356.351 627.84 358.009L627.834 358.015Z" fill="white"/>
<path d="M484.038 682.269C462.404 688.066 445.625 689.426 434.118 686.309C423.177 683.343 417.39 676.341 416.915 665.487C410.329 624.968 413.096 577.613 415.116 543.031C415.432 537.604 415.731 532.481 415.964 527.877C416.797 511.829 425.307 493.615 439.923 476.586C454.663 459.418 474.011 445.381 494.403 437.062C508.665 431.922 547.801 416.239 603.314 381.575C611.546 376.462 621.001 375.517 630.658 378.853C647.499 384.67 663.285 402.915 671.853 426.467C680.095 448.453 689.032 474.026 690.752 499.308C692.572 526.027 686.11 549.713 670.999 571.727C663.776 582.916 649.082 596.632 628.517 611.388C608.93 625.441 585.491 639.436 560.735 651.857C535.169 664.683 510.321 674.736 488.878 680.923C487.239 681.396 485.623 681.844 484.034 682.27L484.038 682.269ZM611.871 378.582C609.037 379.341 606.294 380.537 603.68 382.159C594.798 387.705 576.687 398.713 555.175 410.116C532.59 422.091 512.23 431.371 494.654 437.703C474.373 445.977 455.119 459.944 440.451 477.032C425.935 493.945 417.484 512.012 416.659 527.909C416.426 532.512 416.127 537.638 415.813 543.069C413.793 577.625 411.028 624.946 417.607 665.395L417.61 665.436C418.062 675.966 423.678 682.763 434.303 685.641C446.359 688.907 465.168 687.048 488.692 680.258C510.097 674.08 534.901 664.047 560.431 651.238C585.154 638.833 608.563 624.857 628.123 610.827C648.619 596.123 663.247 582.469 670.432 571.347C685.457 549.461 691.877 525.914 690.072 499.359C688.358 474.169 679.439 448.651 671.214 426.713C662.714 403.345 647.092 385.262 630.44 379.511C624.06 377.305 617.767 377.009 611.88 378.587L611.871 378.582Z" fill="white"/>
<path d="M486.406 663.355C471.044 667.472 458.633 668.62 450.172 666.669C441.675 664.708 436.982 659.717 436.218 651.829C425.596 616.708 428.352 555.077 429.525 528.755C431.051 495.867 458.822 461.211 497.058 444.481C527.878 432.761 563.034 414.581 584.04 403.723C586.269 402.571 588.364 401.489 590.298 400.491C597.484 396.816 605.644 396.582 613.883 399.806C628.113 405.375 641.339 420.803 648.408 440.073C655.858 459.578 662.934 480.558 664.276 501.827C665.708 524.522 660.311 544.753 647.77 563.68C635.729 583.335 599.474 611.198 555.407 634.657C534.218 645.936 513.529 654.926 495.578 660.658C492.417 661.666 489.356 662.569 486.403 663.36L486.406 663.355ZM595.738 399.06C593.971 399.533 592.251 400.196 590.582 401.048C588.648 402.042 586.556 403.123 584.327 404.279C563.312 415.144 528.137 433.336 497.297 445.061C459.282 461.695 431.667 496.125 430.152 528.785C428.976 555.082 426.223 616.667 436.827 651.681L436.843 651.74C437.566 659.35 442.097 664.168 450.313 666.062C460.293 668.363 475.882 666.287 495.392 660.063C513.309 654.345 533.965 645.371 555.117 634.109C599.089 610.698 635.251 582.924 647.247 563.349C675.094 521.322 662.802 479.519 647.827 440.3C640.816 421.187 627.724 405.898 613.658 400.395C607.505 397.986 601.407 397.548 595.743 399.066L595.738 399.06Z" fill="white"/>
<path d="M489.157 644.77C479.767 647.286 471.939 648.184 466.263 647.263C460.15 646.267 456.539 643.214 455.53 638.191C449.924 629.36 446.083 612.769 444.106 588.879C442.666 571.473 442.295 549.88 443.091 529.634C444.416 497.145 465.584 468.088 499.718 451.902C511.872 446.94 524.455 441.52 536.623 436.277C552.362 429.497 567.228 423.097 577.286 419.406C585.761 416.333 595.456 418.411 604.582 425.253C613.234 431.739 620.659 442.098 624.965 453.675C635.303 480.042 637.255 494.602 637.803 504.343C638.851 523.004 634.513 539.782 624.544 555.63C614.674 572.934 586.167 596.66 550.148 617.536C527.14 630.872 505.72 640.336 489.158 644.773L489.157 644.77ZM579.318 419.352C578.699 419.518 578.087 419.712 577.479 419.931C567.435 423.615 552.579 430.012 536.847 436.79C524.675 442.034 512.088 447.452 499.944 452.411C466.017 468.5 444.965 497.377 443.651 529.653C442.857 549.879 443.226 571.447 444.663 588.831C446.634 612.671 450.461 629.194 456.031 637.933L456.058 637.978L456.071 638.027C457.013 642.829 460.469 645.75 466.351 646.711C481.917 649.25 513.919 637.884 549.864 617.05C585.802 596.222 614.233 572.577 624.062 555.343C633.973 539.589 638.281 522.921 637.242 504.377C636.206 485.914 629.857 467.691 624.439 453.88C620.172 442.394 612.813 432.126 604.245 425.703C595.931 419.471 587.156 417.256 579.319 419.356L579.318 419.352Z" fill="white"/>
<path d="M492.703 626.81C488.82 627.851 485.447 628.376 482.71 628.334C478.706 628.268 476.071 627.011 474.879 624.592C466.396 621.061 461.933 602.558 459.681 587.632C457.142 570.797 456.011 549.446 456.651 530.508C457.222 514.211 461.113 500.588 468.546 488.855C476.139 476.874 487.203 467.214 502.372 459.317C525.729 448.795 550.027 440.557 564.285 438.325C571.235 437.268 578.976 439.877 586.08 445.665C592.725 451.082 598.352 458.959 601.516 467.279C610.426 489.102 618.455 517.945 601.313 547.576C593.682 562.419 572.739 582.159 545.298 600.362C525.244 613.666 505.993 623.249 492.699 626.811L492.703 626.81ZM552.201 441.492C538.264 445.226 520.161 451.845 502.592 459.76C487.514 467.606 476.514 477.211 468.969 489.116C461.582 500.773 457.715 514.315 457.149 530.52C455.946 565.914 460.739 618.366 475.155 624.166L475.243 624.202L475.285 624.288C476.368 626.579 478.869 627.771 482.718 627.834C494.739 628.029 519.197 617.081 545.029 599.943C572.402 581.785 593.286 562.117 600.884 547.332C617.923 517.878 609.928 489.172 601.06 467.454L601.058 467.447C597.923 459.205 592.349 451.4 585.767 446.038C578.773 440.336 571.171 437.769 564.361 438.803C560.86 439.352 556.751 440.265 552.2 441.485L552.201 441.492Z" fill="white"/>
<path d="M498.379 610.562C496.704 611.011 495.341 611.147 494.351 610.937C491.665 612.091 489.093 611.855 486.708 610.246C479.729 605.537 475.722 590.209 473.589 578.173C471.05 563.856 469.794 546.363 470.222 531.379C470.716 514.428 473.145 502.575 478.101 492.941C483.383 482.669 491.947 474.339 505.041 466.728C520.206 458.828 538.366 455.108 551.309 457.249C562.925 459.22 574.043 470.808 578.078 480.872C587.115 501.485 587.119 521.217 578.095 539.512C574.891 546.867 569.063 555.202 560.783 564.281C553.612 572.14 544.784 580.321 535.242 587.935C520.307 599.857 506.067 608.494 498.381 610.554L498.379 610.562ZM494.307 610.492L494.375 610.507C495.327 610.728 496.649 610.598 498.283 610.161C515.201 605.627 565.292 567.816 577.7 539.341C586.67 521.153 586.662 501.546 577.676 481.051L577.674 481.044C573.683 471.088 562.7 459.625 551.229 457.679C538.372 455.553 520.316 459.255 505.237 467.11C492.224 474.673 483.716 482.943 478.469 493.142C473.546 502.715 471.132 514.512 470.638 531.394C470.211 546.353 471.469 563.811 474.001 578.104C476.121 590.057 480.085 605.273 486.937 609.896C489.212 611.43 491.668 611.641 494.236 610.518L494.299 610.49L494.307 610.492Z" fill="white"/>
<path d="M506.821 601.848C505.145 602.298 503.511 602.203 501.928 601.556C497.959 599.941 492.314 593.972 487.945 574.727C485.017 561.826 483.46 545.953 483.778 532.265C484.153 516.088 484.601 505.642 487.638 497.051C490.78 488.162 496.588 481.529 507.693 474.162C513.811 470.102 520.334 468.935 527.074 470.692C541.649 474.497 552.674 490.68 554.623 494.482C558.262 501.584 559.262 510.297 557.591 520.38C556.153 529.061 552.745 538.774 547.459 549.261C537.906 568.212 523.77 586.431 513.728 597.162C511.364 599.687 509.054 601.254 506.822 601.852L506.821 601.848ZM515.381 471.008C512.828 471.692 510.331 472.841 507.892 474.461C496.862 481.781 491.091 488.359 487.978 497.17C484.961 505.714 484.513 516.13 484.14 532.273C483.56 557.23 489.608 596.146 502.064 601.224C505.6 602.666 509.434 601.216 513.459 596.915C523.484 586.204 537.595 568.018 547.131 549.098C552.399 538.646 555.797 528.965 557.227 520.321C558.884 510.315 557.897 501.678 554.296 494.648C552.363 490.876 541.422 474.813 526.977 471.044C523.023 470.013 519.143 470.004 515.375 471.013L515.381 471.008Z" fill="white"/>
</g>
<defs>
<filter id="filter0_d_102_3" x="0.973755" y="-48.1058" width="949.414" height="960.113" filterUnits="userSpaceOnUse" color-interpolation-filters="sRGB">
<feFlood flood-opacity="0" result="BackgroundImageFix"/>
<feColorMatrix in="SourceAlpha" type="matrix" values="0 0 0 0 0 0 0 0 0 0 0 0 0 0 0 0 0 0 127 0" result="hardAlpha"/>
<feOffset dx="-100" dy="-100"/>
<feGaussianBlur stdDeviation="100"/>
<feComposite in2="hardAlpha" operator="out"/>
<feColorMatrix type="matrix" values="0 0 0 0 0.776471 0 0 0 0 0.956863 0 0 0 0 0.196078 0 0 0 1 0"/>
<feBlend mode="normal" in2="BackgroundImageFix" result="effect1_dropShadow_102_3"/>
<feBlend mode="normal" in="SourceGraphic" in2="effect1_dropShadow_102_3" result="shape"/>
</filter>
</defs>
</svg>
