<svg width="22" height="22" viewBox="0 0 22 22" fill="none" xmlns="http://www.w3.org/2000/svg">
<g clip-path="url(#clip0_2007_1632)">
<g clip-path="url(#clip1_2007_1632)">
<g clip-path="url(#clip2_2007_1632)">
<mask id="mask0_2007_1632" style="mask-type:luminance" maskUnits="userSpaceOnUse" x="0" y="0" width="22" height="22">
<path d="M0 0H22V22H0V0Z" fill="white"/>
</mask>
<g mask="url(#mask0_2007_1632)">
<path d="M10.9998 18.7151C11.6088 19.259 12.3312 19.6604 13.1147 19.8903C13.8981 20.1202 14.7229 20.1727 15.5292 20.0442C16.3355 19.9157 17.103 19.6092 17.7761 19.1471C18.4492 18.685 19.011 18.0788 19.4207 17.3726C19.8304 16.6664 20.0777 15.8778 20.1447 15.0641C20.2117 14.2504 20.0967 13.4319 19.808 12.6682C19.5194 11.9045 19.0643 11.2146 18.4758 10.6486C17.8873 10.0827 17.1802 9.65482 16.4058 9.39614M12.4518 12.6041C12.854 13.6288 12.9394 14.7507 12.6971 15.8244C12.4547 16.8982 11.8957 17.8746 11.0924 18.6272C10.2891 19.3799 9.27839 19.8741 8.1911 20.046C7.10381 20.218 5.98994 20.0597 4.99358 19.5917C3.99723 19.1236 3.16425 18.3674 2.60239 17.4208C2.04054 16.4742 1.77567 15.3807 1.84204 14.2819C1.90842 13.1831 2.30299 12.1295 2.9747 11.2574C3.64642 10.3853 4.56438 9.73483 5.60983 9.39014" stroke="#262626" stroke-width="2" stroke-linecap="round" stroke-linejoin="round"/>
<path d="M11 12.7822C12.4587 12.7822 13.8576 12.2028 14.8891 11.1713C15.9205 10.1399 16.5 8.74092 16.5 7.28223C16.5 5.82354 15.9205 4.42459 14.8891 3.39314C13.8576 2.36169 12.4587 1.78223 11 1.78223C9.54131 1.78223 8.14236 2.36169 7.11091 3.39314C6.07946 4.42459 5.5 5.82354 5.5 7.28223C5.5 8.74092 6.07946 10.1399 7.11091 11.1713C8.14236 12.2028 9.54131 12.7822 11 12.7822Z" stroke="#262626" stroke-width="2" stroke-linecap="round" stroke-linejoin="round"/>
</g>
</g>
</g>
</g>
<defs>
<clipPath id="clip0_2007_1632">
<rect width="22" height="22" fill="white"/>
</clipPath>
<clipPath id="clip1_2007_1632">
<rect width="22" height="22" fill="white"/>
</clipPath>
<clipPath id="clip2_2007_1632">
<rect width="22" height="22" fill="white"/>
</clipPath>
</defs>
</svg>
