<svg width="23" height="22" viewBox="0 0 23 22" fill="none" xmlns="http://www.w3.org/2000/svg">
<g clip-path="url(#clip0_2007_1665)">
<g clip-path="url(#clip1_2007_1665)">
<path d="M8.61523 2.75H4.03223C3.78903 2.75 3.55579 2.84661 3.38382 3.01858C3.21185 3.19055 3.11523 3.4238 3.11523 3.667V8.25C3.11523 8.756 3.52523 9.167 4.03223 9.167H8.61523C9.12123 9.167 9.53223 8.757 9.53223 8.25V3.667C9.53223 3.4238 9.43562 3.19055 9.26365 3.01858C9.09168 2.84661 8.85844 2.75 8.61523 2.75ZM8.61523 12.833H4.03223C3.78903 12.833 3.55579 12.9296 3.38382 13.1016C3.21185 13.2736 3.11523 13.5068 3.11523 13.75V18.333C3.11523 18.839 3.52523 19.25 4.03223 19.25H8.61523C9.12123 19.25 9.53223 18.84 9.53223 18.333V13.75C9.53223 13.5068 9.43562 13.2736 9.26365 13.1016C9.09168 12.9296 8.85844 12.833 8.61523 12.833ZM18.6972 2.75H14.1142C13.871 2.75 13.6378 2.84661 13.4658 3.01858C13.2938 3.19055 13.1972 3.4238 13.1972 3.667V8.25C13.1972 8.756 13.6072 9.167 14.1142 9.167H18.6972C19.2032 9.167 19.6142 8.757 19.6142 8.25V3.667C19.6142 3.4238 19.5176 3.19055 19.3456 3.01858C19.1737 2.84661 18.9404 2.75 18.6972 2.75ZM18.6972 12.833H14.1142C13.871 12.833 13.6378 12.9296 13.4658 13.1016C13.2938 13.2736 13.1972 13.5068 13.1972 13.75V18.333C13.1972 18.839 13.6072 19.25 14.1142 19.25H18.6972C19.2032 19.25 19.6142 18.84 19.6142 18.333V13.75C19.6142 13.5068 19.5176 13.2736 19.3456 13.1016C19.1737 12.9296 18.9404 12.833 18.6972 12.833Z" stroke="#262626" stroke-width="2" stroke-linejoin="round"/>
</g>
</g>
<defs>
<clipPath id="clip0_2007_1665">
<rect width="22" height="22" fill="white" transform="translate(0.533203)"/>
</clipPath>
<clipPath id="clip1_2007_1665">
<rect width="22" height="22" fill="white" transform="translate(0.533203)"/>
</clipPath>
</defs>
</svg>
