<svg width="320" height="320" viewBox="0 0 320 320" fill="none" xmlns="http://www.w3.org/2000/svg">
<path d="M94.8072 164.673C14.0365 223.065 91.4795 166.962 155.396 228.876C167.832 240.914 186.824 284.593 194.125 281.71C195.746 281.071 195.817 278.738 195.645 276.999C193.399 250.203 198.059 223.27 209.147 198.95C220.235 174.63 237.355 153.796 258.759 138.576C268.641 131.739 264.969 124.903 253.537 124.501C231.68 124.391 210.074 119.668 190.037 110.62C171.39 99.1769 141.927 59.793 129.018 39.0161C129.85 91.6271 121.846 146.943 79.7461 176.31L94.8072 164.673Z" fill="#3f9bf795"/>
<path d="M277.934 126.701C278.565 116.669 213.831 124.472 179.549 95.1343C139.5 60.9521 126.749 4.38788 119.577 6.85494C107.858 9.64897 141.924 106.177 84.7782 164.227C64.0656 185.271 40.6993 194.501 42.2915 198.811C44.0844 209.467 123.937 180.516 172.893 266.09C187.237 290.895 195.628 313.648 199.501 313.217C208.681 313.217 185.616 223.6 239.09 161.79C259.416 138.68 279.296 130.758 277.934 126.701ZM229.265 152.605C203.235 185.196 189.081 226.225 189.274 268.527C179.166 245.462 162.969 225.828 142.554 211.891C122.138 197.954 98.3348 190.282 73.8912 189.76C104.3 173.233 133.232 130.818 132.701 63.8947C132.601 53.9521 131.339 54.5317 135.154 61.4276C143.636 79.0755 156.04 94.3851 171.346 106.097C186.652 117.809 204.423 125.589 223.197 128.796C274.836 137.416 258.799 118.884 229.265 152.605Z" fill="#0F0F0F"/>
</svg>
