<svg width="320" height="320" viewBox="0 0 320 320" fill="none" xmlns="http://www.w3.org/2000/svg">
<path d="M191.197 57.4135C200.3 66.0478 198.063 80.4297 197.582 91.0406C193.46 182.482 265.929 151.091 265.291 101.118C280.532 112.6 281.234 133.003 284.667 146.878C290.134 163.519 291.761 181.181 289.426 198.541C281.971 222.061 269.293 243.59 252.34 261.517C138.234 374.05 1.00747 225.107 32.5801 154.628C42.5278 161.13 45.8046 173.899 52.4104 183.756C70.6154 210.829 126.141 199.23 124.385 179.504C123.085 164.55 101.044 157.502 90.966 140.792C86.5642 132.235 85.2154 122.432 87.1425 113.005C89.0697 103.577 94.1573 95.09 101.564 88.947C122.369 71.2882 162.863 63.4861 129.365 18.7279C142.941 10.8738 180.833 47.5438 191.197 57.4135Z" fill="#FDBC45"/>
<path d="M294.209 162.725C289.008 119.709 265.003 91.7258 262.377 93.9494C259.308 94.5215 262.273 113.013 252.247 129.059C240.063 148.564 206.045 153.766 205.564 112.896C204.667 68.6835 206.93 29.4518 140.247 16.0452C128.154 13.4445 125.384 14.9008 131.873 29.6729C146.385 62.7929 111.275 62.6629 89.2995 91.1406C82.8806 98.5152 79.0196 107.768 78.2931 117.518C77.5665 127.268 80.0134 136.991 85.2684 145.235C95.1381 158.98 114.76 167.445 114.279 178.095C115.281 201.502 63.7995 204.896 39.938 157.602C36.4791 150.45 35.1657 145.899 33.8393 146.068C32.9551 145.625 28.2998 151.88 26.1152 165.352C14.191 239.277 99.8063 325.686 191.104 304.36C222.857 297.86 251.035 279.73 270.11 253.527C289.185 227.324 297.78 194.939 294.209 162.725ZM98.0769 271.708C79.3822 260.77 63.6658 245.401 52.3136 226.956C40.9614 208.51 34.3221 187.555 32.9811 165.937C32.8511 137.511 28.5339 190.033 75.0085 206.911C107.647 218.289 130.729 200.513 131.626 178.173C131.86 151.048 97.0236 144.65 95.5412 124.183C91.224 81.557 171.547 72.7276 137.829 26.2009C130.417 17.0984 130.82 18.3988 137.829 22.5209C151.508 30.154 154.46 30.8172 162.249 35.9146C207.58 65.1075 175.253 111.478 195.135 143.48C214.758 176.847 274.613 157.043 267.279 106.134C326.484 233.529 196.228 332.291 98.0769 271.708Z" fill="#0F0F0F"/>
</svg>
