<svg width="320" height="320" viewBox="0 0 320 320" fill="none" xmlns="http://www.w3.org/2000/svg">
<path d="M270.802 90.9811L265.437 44.1236C265.341 43.2933 265.058 42.4953 264.612 41.7889C264.165 41.0824 263.564 40.4857 262.855 40.0429C262.146 39.6001 261.347 39.3226 260.516 39.2311C259.685 39.1396 258.844 39.2363 258.056 39.5142L214.42 54.9404C213.442 55.2886 212.581 55.9038 211.934 56.7162C211.288 57.5286 210.881 58.5058 210.761 59.5372C210.642 60.5685 210.813 61.6129 211.256 62.5521C211.699 63.4912 212.396 64.2876 213.268 64.851L230.613 75.9977C204.932 108.946 187.039 134.943 166.998 165.589C150.718 121.35 148.122 97.4373 141.406 54.5995C72.3798 200.457 32.2664 272.687 36.5074 275.206C43.0725 279.122 98.2024 181.761 107.425 164.741C138.424 107.356 131.731 111.995 134.457 123.158C141.514 151.698 151.223 179.514 163.458 206.246C188.856 164.686 216.565 124.583 246.454 86.1269L262.275 96.2839C263.159 96.851 264.187 97.1558 265.238 97.1629C266.289 97.1701 267.32 96.8794 268.212 96.3244C269.105 95.7695 269.822 94.973 270.28 94.0273C270.739 93.0816 270.92 92.0254 270.802 90.9811Z" fill="#FDBC45"/>
<path d="M261.355 39.3422C266.34 40.678 265.049 40.5123 270.806 90.9681C270.924 92.0131 270.743 93.0702 270.285 94.0169C269.827 94.9635 269.11 95.7612 268.217 96.3173C267.325 96.8735 266.293 97.1654 265.241 97.1594C264.19 97.1534 263.161 96.8496 262.275 96.2833L246.455 86.1263C216.591 124.587 188.887 164.675 163.469 206.208C127.68 118.089 136.654 124.134 132.792 115.912C134.756 111.676 123.41 135.173 107.435 164.703C92.711 191.911 43.1952 276.97 36.6142 275.207C31.9832 273.171 69.8699 205.762 141.416 54.5615C148.582 100.659 151.552 123.55 167.009 165.551C186.27 136.046 204.25 109.798 230.623 75.9597L213.276 64.8193C212.398 64.2592 211.695 63.4633 211.248 62.5225C210.801 61.5817 210.628 60.534 210.748 59.4994C210.869 58.4647 211.278 57.4849 211.929 56.6719C212.58 55.859 213.447 55.2458 214.431 54.9024C261.655 38.2204 258.999 38.711 261.355 39.3422ZM263.476 31.4276C257.867 29.9247 258.805 30.5368 211.698 47.177C209.273 48.036 207.137 49.5581 205.533 51.5705C203.929 53.5829 202.922 56.0048 202.626 58.561C202.33 61.1171 202.757 63.7051 203.858 66.0308C204.96 68.3564 206.691 70.3264 208.857 71.717L218.67 78.0201C201.406 100.503 184.917 123.571 169.232 147.183C158.33 113.958 157.793 103.374 145.416 26.9454C24.6865 274.976 18.1926 278.647 34.4986 283.103C52.6579 288.095 121.786 155.491 130.155 139.191C138.489 169.411 147.198 188.556 162.009 223.871C188.494 180.081 217.312 137.744 248.338 97.0442C257.25 102.772 265.237 109.781 274.284 101.993C282.087 95.3067 278.962 89.9675 273.59 43.135C273.28 40.3918 272.148 37.8063 270.343 35.7172C268.538 33.6282 266.145 32.133 263.476 31.4276Z" fill="#0F0F0F"/>
</svg>
