<svg width="320" height="320" viewBox="0 0 320 320" fill="none" xmlns="http://www.w3.org/2000/svg">
<path d="M141.11 24.4314C62.1716 37.3193 -24.474 143.799 20.7498 211.899C44.6059 241.913 73.6671 267.39 106.545 287.113C173.704 324.102 292.35 257.2 307.957 155.373C313.396 119.918 303.228 101.901 284.759 85.4945C235.424 41.6755 206.62 13.7086 141.11 24.4314Z" fill="#3f9bf795"/>
<path d="M290.533 79.58C272.63 62.4032 253.335 46.7381 232.847 32.7452C109.999 -43.951 -57.0157 133.348 24.6423 228.487C44.1122 250.363 66.1857 269.775 90.3708 286.29C211.066 366.607 382.862 171.922 290.533 79.58ZM300.779 149.458C271.73 132.975 286.744 139.831 259.448 117.522C262.663 99.8638 259.944 81.6378 251.715 65.6867C288.381 97.0044 305.47 109.106 300.779 149.445V149.458ZM21.5749 198.42C-7.70647 131.235 75.7816 18.8649 176.952 28.5179C214.868 31.7528 248.66 53.9974 252.772 91.6689C262.193 168.803 146.42 291.355 56.875 240.267C42.6883 228.553 30.7303 214.377 21.5749 198.42ZM73.3844 254.611C89.0721 259.877 105.734 261.59 122.165 259.624C132.218 269.342 140.208 268.388 158.419 289.125C122.823 291.445 103.31 278.982 73.3844 254.663V254.611ZM169.876 287.785C155.738 279.946 143.345 269.307 133.455 256.519C149.074 251.309 163.885 243.934 177.455 234.609C193.191 246.092 191.76 237.895 222.421 266.532C206.52 277.102 188.648 284.348 169.876 287.836V287.785ZM230.643 260.913C193.977 239.558 212.6 251.144 186.051 228.178C201.746 216.037 215.773 201.88 227.769 186.073C249.872 200.598 243.093 190.403 273.379 218.112C261.449 234.532 247.031 248.99 230.643 260.965V260.913ZM278.444 210.65C243.518 191.254 250.916 190.816 233.852 177.644C244.396 162.605 252.298 145.877 257.218 128.18C273.065 135.848 287.306 146.464 299.181 159.459C295.572 177.702 288.536 195.095 278.444 210.715V210.65Z" fill="#000"/>
<path d="M81.2206 235.462C113.685 241.61 189.917 208.036 223.259 140.968C254.95 77.0951 210.048 28.7138 154.952 39.8876C128.124 45.6562 103.504 58.9726 83.9915 78.2679C72.3923 90.0861 87.8578 76.7213 98.8255 69.2463C202.664 -0.606285 277.968 90.4083 181.708 184.013C159.553 204.866 110.708 233.245 82.4707 228.322C57.1588 223.94 36.6025 196.489 41.8221 159.127C48.7558 109.637 81.4654 85.8589 79.326 83.7324C78.2434 82.6369 65.2395 97.2003 62.7908 100.255C12.1928 163.625 38.162 228.503 81.2206 235.462Z" fill="#000"/>
</svg>
