<svg width="31" height="30" viewBox="0 0 31 30" fill="none" xmlns="http://www.w3.org/2000/svg">
<g id="XPRxJbS3HpZLlg2VBODFjasfQ.svg">
<path id="Vector" d="M21.6511 4.17227C25.3876 6.33302 27.9009 10.3725 27.9009 15M21.6511 4.17227V8.74952M21.6511 4.17227H26.2291M26.2291 21.2498C24.0676 24.9863 20.0281 27.4995 15.4006 27.4995M26.2291 21.2498H21.6504M26.2291 21.2498L26.2284 25.8278M9.15089 25.8278C5.41439 23.6663 2.90039 19.6268 2.90039 15M9.15089 25.8278L9.15014 21.2498M9.15089 25.8278H4.57364M4.57364 8.75027C6.73439 5.01302 10.7746 2.49902 15.4006 2.49902M4.57364 8.75027L9.15089 8.74952M4.57364 8.75027V4.17227" stroke="white" stroke-width="1.65" stroke-linecap="round" stroke-linejoin="round"/>
<path id="Vector_2" d="M26.2276 21.2498C24.0661 24.9863 20.0266 27.4995 15.3999 27.4995M26.2276 21.2498H21.6496M26.2276 21.2498V25.8278M9.15014 25.8278C5.41439 23.6663 2.90039 19.6268 2.90039 15M9.15014 25.8278V21.2498M9.15014 25.8278H4.57289M15.3991 2.49976C10.7724 2.49976 6.73289 5.01376 4.57214 8.74951H9.14939M4.57139 8.74951V4.17226M21.6504 4.17226C25.3869 6.33376 27.9001 10.3733 27.9001 15M21.6504 4.17226V8.75026M21.6504 4.17226H26.2284" stroke="white" stroke-width="1.65" stroke-linecap="round" stroke-linejoin="round"/>
</g>
</svg>
