<svg width="31" height="30" viewBox="0 0 31 30" fill="none" xmlns="http://www.w3.org/2000/svg">
<g id="P3eRrGqcEJtYBJHuEKVhDVF2zS0.svg">
<path id="Vector" d="M9.15052 11.25C10.3109 11.25 11.4237 10.7891 12.2442 9.96856C13.0647 9.14807 13.5256 8.03524 13.5256 6.87488C13.5256 5.71453 13.0647 4.6017 12.2442 3.7812C11.4237 2.96071 10.3109 2.49976 9.15052 2.49976C7.99016 2.49976 6.87733 2.96071 6.05684 3.7812C5.23634 4.6017 4.77539 5.71453 4.77539 6.87488C4.77539 8.03524 5.23634 9.14807 6.05684 9.96856C6.87733 10.7891 7.99016 11.25 9.15052 11.25ZM21.65 11.25C22.8104 11.25 23.9232 10.7891 24.7437 9.96856C25.5642 9.14807 26.0251 8.03524 26.0251 6.87488C26.0251 5.71453 25.5642 4.6017 24.7437 3.7812C23.9232 2.96071 22.8104 2.49976 21.65 2.49976C20.4897 2.49976 19.3768 2.96071 18.5563 3.7812C17.7358 4.6017 17.2749 5.71453 17.2749 6.87488C17.2749 8.03524 17.7358 9.14807 18.5563 9.96856C19.3768 10.7891 20.4897 11.25 21.65 11.25Z" stroke="white" stroke-width="1.65" stroke-linejoin="round"/>
<path id="Vector_2" d="M2.90039 27.4995V21.8745C2.90039 18.423 5.25689 15.6248 8.16389 15.6248H11.3214C13.8744 15.6248 15.4006 18.1418 15.4006 18.1418" stroke="white" stroke-width="1.65" stroke-linecap="round" stroke-linejoin="round"/>
<path id="Vector_3" d="M27.9011 27.4995V21.8745C27.9011 18.423 25.5161 15.6248 22.5754 15.6248H19.3796C16.9039 15.6248 15.3964 18.1418 15.4009 18.1418M7.27539 24.9998H24.1504" stroke="white" stroke-width="1.65" stroke-linecap="round" stroke-linejoin="round"/>
<path id="Vector_4" d="M21.8363 22.6613L22.6111 23.4413L24.1606 24.9998L22.6111 26.6003L21.8363 27.4013M9.35709 22.6448L8.56959 23.4285L6.99609 24.996L8.57034 26.5883L9.35709 27.3848" stroke="white" stroke-width="1.65" stroke-linecap="round" stroke-linejoin="round"/>
</g>
</svg>
