<svg width="31" height="30" viewBox="0 0 31 30" fill="none" xmlns="http://www.w3.org/2000/svg">
<g id="CCYliR0zPJiJGPPkI19D9uuZzSI.svg">
<path id="Vector" d="M22.6861 27.4291H8.11431C5.11431 27.4291 2.75781 25.0718 2.75781 22.0718V8.57185C2.75781 5.57185 5.11431 3.2146 8.11431 3.2146H22.9006C25.9006 3.2146 28.2578 5.57185 28.2578 8.57185V22.0718C28.0433 24.8574 25.6861 27.4291 22.6861 27.4291ZM8.11431 4.7146C7.60722 4.71252 7.10474 4.81087 6.63586 5.00399C6.16698 5.1971 5.74098 5.48116 5.38244 5.83976C5.02391 6.19837 4.73994 6.62442 4.54691 7.09334C4.35389 7.56226 4.25563 8.06476 4.25781 8.57185V22.0718C4.25563 22.5789 4.35389 23.0814 4.54691 23.5504C4.73994 24.0193 5.02391 24.4453 5.38244 24.8039C5.74098 25.1625 6.16698 25.4466 6.63586 25.6397C7.10474 25.8328 7.60722 25.9312 8.11431 25.9291H22.9006C23.4077 25.9313 23.9103 25.833 24.3792 25.6399C24.8482 25.4469 25.2743 25.1628 25.6329 24.8042C25.9915 24.4456 26.2756 24.0195 26.4686 23.5505C26.6617 23.0816 26.76 22.579 26.7578 22.0718V8.57185C26.76 8.0647 26.6617 7.56213 26.4686 7.09316C26.2756 6.6242 25.9915 6.19811 25.6329 5.83949C25.2743 5.48088 24.8482 5.19684 24.3792 5.00377C23.9103 4.8107 23.4077 4.71242 22.9006 4.7146H8.11431Z" fill="white"/>
<path id="Vector_2" d="M21.8288 7.50008V5.57258C21.8288 3.42983 20.5433 1.71533 18.8288 1.71533H11.7578C10.0433 1.71533 8.75781 3.42983 8.75781 5.57258V7.50008H21.8288Z" fill="#43B6F4"/>
<path id="Vector_3" d="M21.8282 8.35718H8.11523V5.57093C8.11523 2.99993 9.82973 0.857178 11.9725 0.857178H19.0442C21.187 0.857178 22.9007 2.99993 22.9007 5.57093V8.14268L21.8297 8.35718H21.8282ZM9.61523 6.64268H21.4007V5.57093C21.4007 3.85718 20.3297 2.57093 19.0442 2.57093H11.758C10.4725 2.57093 9.40073 3.85718 9.40073 5.57093V6.64268H9.61523Z" fill="#EDEFF3"/>
<path id="Vector_4" d="M24.8282 8.35732H5.97248C5.54423 8.35732 5.11523 7.92907 5.11523 7.50007C5.11523 7.07182 5.54423 6.64282 5.97248 6.64282H24.8297C25.258 6.64282 25.687 7.07182 25.687 7.50007C25.687 7.92907 25.258 8.35732 24.8297 8.35732H24.8282ZM11.5007 16.0006L16.1357 19.4611L15.2395 20.6611L10.6007 17.2028L11.5007 16.0006Z" fill="#EDEFF3"/>
<path id="Vector_5" d="M14.1179 19.7551L21.7897 11.6724L22.8757 12.7051L15.2047 20.7879L14.1179 19.7551Z" fill="#EDEFF3"/>
</g>
</svg>
